<svg width="40" height="40" xmlns="http://www.w3.org/2000/svg" fill="none">
 <g>
  <title>Layer 1</title>
  <circle cx="20" cy="20" r="20" fill="#c92f95" id="svg_1"/>
  <path d="m9,10c-0.55228,0 -1,0.4477 -1,1c0,0.5523 0.44772,1 1,1l0,-2zm2.2222,1l0.9804,-0.1971c-0.0939,-0.467 -0.5041,-0.8029 -0.9804,-0.8029l0,1zm-0.5359,2.4076c0.1089,0.5415 0.636,0.8921 1.1775,0.7833c0.5414,-0.1089 0.8921,-0.6361 0.7832,-1.1775l-1.9607,0.3942zm2.7581,7.6449c-0.5522,0 -1,0.4477 -1,1c0,0.5523 0.4478,1 1,1l0,-2zm11.1112,1l0,1c0.378,0 0.7237,-0.2131 0.8934,-0.5509l-0.8934,-0.4491zm4.4444,-8.842l0.8935,0.4491c0.1558,-0.31 0.1398,-0.6786 -0.0423,-0.9739c-0.1821,-0.2954 -0.5042,-0.4752 -0.8512,-0.4752l0,1zm-17.3333,-1c-0.5523,0 -1,0.4477 -1,1c0,0.5523 0.4477,1 1,1l0,-2zm0.7974,10.0391c0.1088,0.5415 0.636,0.8922 1.1775,0.7833c0.5414,-0.1089 0.8921,-0.636 0.7832,-1.1775l-1.9607,0.3942zm0.1829,-9.2362c-0.1088,-0.5415 -0.636,-0.8921 -1.1774,-0.7833c-0.5415,0.1089 -0.8922,0.6361 -0.7833,1.1775l1.9607,-0.3942zm1.5027,9.7481c0.3915,-0.3895 0.3932,-1.0227 0.0037,-1.4142c-0.3895,-0.3916 -1.0226,-0.3932 -1.4142,-0.0037l1.4105,1.4179zm-3.253,1.8254l-0.7053,-0.709l0.7053,0.709zm13.6589,2.8866c0.5522,0 1,-0.4477 1,-1c0,-0.5522 -0.4478,-1 -1,-1l0,2zm0,-1l-1,0c0,0.2662 0.106,0.5213 0.2947,0.709l0.7053,-0.709zm2.2222,2.2105l-0.7053,0.709c0.1874,0.1864 0.441,0.291 0.7053,0.291l0,-1zm-11.1111,0l-0.8649,-0.5019c-0.0885,0.1524 -0.1351,0.3256 -0.1351,0.5019l1,0zm0,2.2105l-1,0c0,0.1764 0.0466,0.3495 0.1351,0.502l0.8649,-0.502zm-6.6667,-18.8945l2.2222,0l0,-2l-2.2222,0l0,2zm1.2418,-0.8029l0.4445,2.2105l1.9607,-0.3942l-0.4444,-2.2105l-1.9608,0.3942zm3.2026,11.8554l11.1112,0l0,-2l-11.1112,0l0,2zm12.0046,-0.5509l4.4445,-8.842l-1.787,-0.8982l-4.4444,8.842l1.7869,0.8982zm3.551,-10.2911l-17.3333,0l0,2l17.3333,0l0,-2zm-14.5752,9.6449l-1.7778,-8.842l-1.9607,0.3942l1.7778,8.842l1.9607,-0.3942zm-1.6856,-0.5118l-2.5478,2.5343l1.4105,1.4179l2.5478,-2.5343l-1.4105,-1.4179zm-2.5478,2.5343c-1.34028,1.3332 -0.38037,3.5956 1.4908,3.5956l0,-2c-0.0401,0 -0.0567,-0.01 -0.0649,-0.0157c-0.0126,-0.0089 -0.0279,-0.0256 -0.0384,-0.0508c-0.0105,-0.0253 -0.0111,-0.0468 -0.0089,-0.0599c0.0014,-0.0076 0.0048,-0.0243 0.0319,-0.0513l-1.4105,-1.4179zm1.4908,3.5956l12.8734,0l0,-2l-12.8734,0l0,2zm13.8734,-1c0,-0.6635 0.5422,-1.2105 1.2222,-1.2105l0,-2c-1.7746,0 -3.2222,1.4324 -3.2222,3.2105l2,0zm1.2222,-1.2105c0.68,0 1.2222,0.547 1.2222,1.2105l2,0c0,-1.7781 -1.4476,-3.2105 -3.2222,-3.2105l0,2zm1.2222,1.2105c0,0.6636 -0.5422,1.2105 -1.2222,1.2105l0,2c1.7746,0 3.2222,-1.4324 3.2222,-3.2105l-2,0zm-0.517,1.5016l-2.2222,-2.2105l-1.4105,1.4179l2.2222,2.2105l1.4105,-1.4179zm-10.9515,1.2109c0.2753,-0.4741 0.8396,-0.7089 1.3773,-0.5656l0.5151,-1.9326c-1.4054,-0.3745 -2.8915,0.2355 -3.6221,1.4943l1.7297,1.0039zm1.3773,-0.5656c0.5368,0.1431 0.9046,0.6247 0.9046,1.1689l2,0c0,-1.4568 -0.9833,-2.7266 -2.3895,-3.1015l-0.5151,1.9326zm0.9046,1.1689c0,0.5442 -0.3678,1.0258 -0.9046,1.1689l0.5151,1.9325c1.4062,-0.3748 2.3895,-1.6446 2.3895,-3.1014l-2,0zm-0.9046,1.1689c-0.5377,0.1433 -1.102,-0.0915 -1.3773,-0.5656l-1.7297,1.0039c0.7306,1.2588 2.2167,1.8688 3.6221,1.4942l-0.5151,-1.9325zm-1.2421,-0.0637l0,-2.2105l-2,0l0,2.2105l2,0z" fill="white" id="svg_2"/>
  <circle stroke="null" cx="29" cy="13" r="6" fill="white" id="svg_3"/>
  <text fill="#c92f95" x="31.55131" y="-34.49483" id="svg_5" stroke-width="0" font-size="24" font-family="'Alegreya'" text-anchor="start" xml:space="preserve" stroke="#c92f95" transform="matrix(0.9147 0 0 0.219485 4.46227 12.8907)"/>
  <text xml:space="preserve" text-anchor="start" font-family="Noto Sans JP" font-size="24" id="svg_6" y="12.5196" x="28.58277" stroke-width="0" stroke="#000" fill="#000000"/>
  <path stroke="#c92f95" d="m31.5263,12.71896l-2.0526,0l0,-0.08497c0,-0.01072 -0.2084,-0.01961 -0.4737,-0.01961c-0.2589,0 -0.4737,0.00863 -0.4737,0.01961l0,0.08497l-2.0526,0c-0.259,0 -0.4737,0.00863 -0.4737,0.01961c0,0.00549 0.0505,0.0102 0.1389,0.01385c0.0885,0.00366 0.2022,0.00575 0.3348,0.00575l2.0526,0l0,0.08497c0,0.00549 0.0505,0.0102 0.139,0.01386c0.0884,0.00366 0.2021,0.00575 0.3347,0.00575c0.2589,0 0.4737,-0.00863 0.4737,-0.01961l0,-0.08497l2.0526,0c0.259,0 0.4737,-0.00863 0.4737,-0.01961c0,-0.01072 -0.2084,-0.01961 -0.4737,-0.01961z" fill="#c92f95" id="svg_7"/>
  <path stroke="#c92f95" d="m31.5263,13.24184l-2.0526,0l0,-0.08497c0,-0.01072 -0.2084,-0.01961 -0.4737,-0.01961c-0.2589,0 -0.4737,0.00863 -0.4737,0.01961l0,0.08497l-2.0526,0c-0.259,0 -0.4737,0.00862 -0.4737,0.0196c0,0.00549 0.0505,0.0102 0.1389,0.01386c0.0885,0.00366 0.2022,0.00575 0.3348,0.00575l2.0526,0l0,0.08497c0,0.00549 0.0505,0.01019 0.139,0.01386c0.0884,0.00366 0.2021,0.00575 0.3347,0.00575c0.2589,0 0.4737,-0.00863 0.4737,-0.01961l0,-0.08497l2.0526,0c0.259,0 0.4737,-0.00862 0.4737,-0.01961c0,-0.01071 -0.2084,-0.0196 -0.4737,-0.0196z" fill="#c92f95" id="svg_8"/>
 </g>

</svg>